<?xml version="1.0" encoding="utf-8"?>

<!DOCTYPE svg PUBLIC "-//W3C//DTD SVG 1.1//EN" "http://www.w3.org/Graphics/SVG/1.1/DTD/svg11.dtd">
<svg version="1.1" id="Layer_1" xmlns="http://www.w3.org/2000/svg" xmlns:xlink="http://www.w3.org/1999/xlink" x="0px" y="0px"
	 viewBox="-904.6207 -575.2682 2651.0535 1748.7758" enable-background="new -904.6207 -575.2682 2651.0535 1748.7758"
	 xml:space="preserve">
<g>
	<path fill="#FAA81D" d="M1047.0841,558.1581l15.0493,58.2947h-15.0493l15.0493,69.5768h-7.5281l7.5281,92.1478l33.8464,69.5768
		l-13.1592,86.5034l45.1355,73.3441l13.1592,50.7732c0,0,78.6395,34.525,105.7811,30.0858
		c4.9264-0.8036,16.4591-11.2822,16.4591-11.2822s19.9166-6.303,24.4479-11.2823c6.7048-7.3699,16.2417-28.1296,13.166-37.6138
		c-1.9496-6.0199-18.8035-16.92-18.8035-16.92l-54.5342-11.2823l-43.2518-118.473l11.2823-110.9581l58.3011-288.6608
		l12.5795-56.0948l-119.7704,47.6315l-99.5836,84.6987L1047.0841,558.1581z"/>
	<path fill="#FAA81D" d="M-50.3778,363.6012l70.6833,143.8036L5.2626,584.503l-41.3681,62.062l-94.0249,71.4605l-9.4052,60.1782
		l30.0858,69.5768l35.7302,90.264l37.6139,82.7426l22.5644,28.2087H97.4102c0,0,24.1516-4.2283,30.0858-9.4116
		c7.1659-6.257,12.2965-26.246,13.1658-35.7237c0.7773-8.437-4.5905-26.7664-11.2823-31.9695
		c-12.2965-9.5632-62.0554-5.6377-62.0554-5.6377l-50.7733-71.4605L0.5661,801.2289l68.6349-44.0288l60.1783-25.0804
		l45.1353-46.0706l-45.1353-148.5654l-60.1783-55.4824L-50.4047,363.647L-50.3778,363.6012z"/>
	<polygon fill="#FAA81D" points="-842.832,1039.5449 -684.8944,879.6972 -684.8944,909.7963 -600.2615,857.1724 -600.2615,875.9432 
		-468.6028,763.1212 -468.6028,776.7548 -365.1993,667.2259 -365.1993,695.4149 -295.5829,625.8644 -295.5829,654.0535 
		-237.2948,584.503 -237.2948,612.692 -173.3426,526.2149 -173.3426,552.4939 -137.6452,501.7142 -137.6452,531.8132 
		-107.5461,467.8609 -107.5461,499.8701 -47.3482,371.9656 -47.3482,86.1237 -126.3169,86.1237 -355.7808,193.3474 
		-472.357,261.0537 -459.1846,272.316 -556.99,334.3583 -545.7274,341.8665 -654.7954,430.2537 -637.8688,437.8278 
		-722.5016,522.3948 -763.8631,614.6019 -748.7807,610.782 -797.7163,687.9066 -784.5438,691.6607 -842.832,806.3928 
		-822.1512,810.1467 -854.0944,937.9853 -835.3237,932.387 	"/>
	<polygon fill="#FFFBD0" points="-707.4193,562.8343 -724.3458,608.9378 -686.7385,597.6095 -696.1568,608.9378 -654.7954,608.9378 
		-681.1402,640.881 -630.3604,640.881 -649.1312,670.9799 -602.1057,661.5616 -602.1057,687.9066 -566.4083,676.6442 
		-575.7607,704.8331 -534.3993,704.8331 -553.2358,733.0222 -508.1201,733.0222 -536.3091,749.9488 -468.6028,763.1212 
		-600.2615,875.9432 -600.2615,857.1724 -684.8944,909.7963 -684.8944,879.6972 -842.832,1039.5449 -835.3237,932.387 
		-854.0944,937.9853 -822.1512,810.1467 -842.832,806.3928 -784.5438,691.6607 -797.7163,687.9066 -748.7807,610.782 
		-763.8631,614.6019 -746.9366,576.9287 	"/>
	<path fill="#FAA81D" d="M1092.2659-127.3357l-77.1313,2.865l9.405,16.9266l-144.7979-8.4633l13.1658,19.752L761.2686-110.363
		v14.1077l-157.964-28.2088v14.1077l-152.326-14.1077v14.1077H315.579l33.8533,14.1077L210.272-86.8437L78.6332-45.4757
		L-47.3612,25.9849l-101.5463,60.1716l101.5463,285.8419l52.6568,67.7063l45.1354,41.3681l56.4176,81.7943h18.8037l24.4415,126.9427
		L84.2775,862.8166l7.5215,26.3252l37.6073,26.3316l133.5159,173.0068h148.5654l20.6873-15.0428c0,0,14.0616-17.5853,16.92-24.4481
		c3.438-8.2461,5.3348-28.5645,0-35.7302c-5.8618-7.8706-37.6073-11.2823-37.6073-11.2823l-67.6997,3.7608l-101.5463-152.326
		l129.7551-218.1422l48.738-63.939l22.7225-107.1841l13.1658,17.8618l33.8466,15.9848h45.1353l-3.7542,15.0429l47.0125-3.7542
		l-7.5215,18.7971l65.8162-5.6377l-3.7608,13.1658l39.491,5.6378l1.8837,7.5281l45.1354-3.7608l45.1354,17.8618h75.2211
		l208.7371-66.7578l30.0858-63.9391l43.2518-22.5644l-11.2822-15.0429l54.5341-71.4671l26.3252-56.411l-13.166-7.5215
		l37.6139-52.6568l-7.5281-15.0429l28.2089-65.8162l14.6808-35.368l-159.5181-217.6746L1092.2659-127.3357z"/>
	<path fill="#FAA81D" d="M1099.7738-11.1548l-16.9198-82.7427h-11.2887l28.2089-69.5768l-28.2089,9.3986l14.1079-26.3251h-23.4996
		l18.7971-31.9695l-18.7971-112.8351v-109.0744l28.202-84.6263c0,0,21.5436-2.2788,28.209,0
		c34.8807,11.9277,94.5848,60.692,116.5895,90.2707c13.5543,18.2175,41.3745,80.8591,41.3745,80.8591l-18.5403-39.6359
		c0,0,39.0302-17.1834,52.8674-20.055c12.3226-2.5621,91.6672-6.1252,91.6672-6.1252l24.4479,3.7607l77.1047,47.0124
		l75.2213,77.1049l41.3682,33.8532l-18.8036,9.4051c0,0,21.853,18.1648,26.3317,26.3251
		c10.426,19.0012,18.7971,84.6263,18.7971,84.6263l-63.9323,78.982l-24.4479,63.939l-157.964-27.2736l-73.4956-28.9991
		l-80.7078-5.7827l-91.1205,26.8915l-55.5878,12.3821L1099.7738-11.1548z"/>
	<polygon fill="#FAA81D" points="1472.0931,-453.5511 1588.7347,-519.4133 1673.302,-541.9382 1673.302,-497.7446 
		1658.2856,-453.5511 1647.0231,-391.5089 1628.1866,-348.3033 1609.4156,-314.4501 1579.3165,-286.1953 1560.4801,-286.1953 
		1426.9772,-410.3456 	"/>
	<polygon fill="#F79420" points="1143.0453,-177.1275 1205.0874,-254.2521 1186.251,-265.5145 1205.0874,-286.1953 
		1184.407,-301.2776 1216.35,-318.2043 1179.6647,-340.7292 1195.6692,-368.9841 1169.3243,-385.8448 1167.4803,-404.6814 
		1109.192,-436.6245 1096.0197,-357.6558 1105.4382,-286.1953 1120.4546,-237.3255 	"/>
	<polygon fill="#F79420" points="1660.1296,-508.085 1615.0142,-476.1418 1579.4484,-464.8794 1579.4484,-449.7969 
		1556.7258,-436.6245 1556.7258,-427.2721 1534.201,-414.0996 1507,-391.5089 1524.7828,-382.0906 1498.1743,-368.1937 
		1509.7002,-359.1706 1509.7002,-333.4185 1560.4801,-286.1953 1579.1851,-329.4668 1596.2432,-384.0007 1630.0964,-436.6245 
		1631.9408,-474.2318 	"/>
	<path fill="#F79420" d="M1321.6636-224.1531c36.0594-12.6982,67.0674,15.4447,67.0674,15.4447s-1.6401-20.7663-25.6929-28.604
		c-15.1482-5.0055-51.5702,16.729-41.3616,13.1066L1321.6636-224.1531z"/>
	<path fill="#F79420" d="M1498.1743-237.3255c0,0,31.6599-11.4534,52.0048,0c6.7574,3.8069-18.2505-16.9266-26.0024-16.9266
		c-7.7717,0-26.0156,16.9266-26.0156,16.9266H1498.1743z"/>
	<path fill="none" stroke="#FBAF30" stroke-width="6.5862" stroke-linecap="round" stroke-miterlimit="10" d="M1487.2413-222.309
		c0,0,40.031-11.9342,63.2477-1.752c26.5555,11.6445,28.9991,34.7884,28.9991,34.7884"/>
	<polygon fill="#FFFBD0" points="1446.7358,108.4511 1423.2234,176.4207 1423.2234,249.7254 1397.8003,249.7254 1397.8003,313.6775 
		1368.6893,313.6775 1304.7369,422.7455 1289.7206,403.9747 1180.6528,507.3782 1165.5701,494.2058 1038.3247,565.4688 
		1048.9943,496.1158 1079.0934,432.1637 1122.299,409.573 1111.0364,394.5563 1191.915,266.652 1178.7426,259.1436 
		1216.35,206.5198 1208.8417,191.4373 1246.4491,95.5419 1253.9575,66.365 	"/>
	<path fill="#FAA81D" d="M890.9907,349.4408l-22.571,18.8037l-16.92-9.4052v65.8226h-16.92l9.4052,80.8591l-9.4052,13.1658
		l18.7971,60.1782l-9.3986,11.2823l18.7971,75.2212l-16.92,11.2822l16.92,80.8655l11.2887,80.8591l16.92,35.7302l9.4052,112.835
		l24.4481,37.6139l31.9695,82.7426l50.7797,13.1658c0,0,49.7591,24.705,65.8162,18.8038
		c4.7748-1.7585,11.2822-16.9266,11.2822-16.9266h15.043l13.166-16.92c0,0,3.3063-28.8081,0-37.6139
		c-1.7588-4.6827-13.166-15.0428-13.166-15.0428h-52.6569l-43.2452-75.2212l-5.6377-114.7122l13.1592-82.7426l7.5281-62.0554
		l15.0429-124.1173l15.0428-97.7921l24.718-52.5318l5.3678-37.7325l-47.0188-80.8591h-90.2641l-50.4505,24.5007L890.9907,349.4408z"
		/>
	<ellipse fill="#FFFFFF" cx="1340.5662" cy="-127.0064" rx="51.7873" ry="55.2782"/>
	<ellipse fill="#FAA81D" cx="1332.3992" cy="-126.7428" rx="43.6401" ry="50.378"/>
	<ellipse stroke="#000000" stroke-width="6.9906" stroke-miterlimit="10" cx="1331.543" cy="-124.1084" rx="31.133" ry="33.7544"/>
	<ellipse fill="#FFFFFF" cx="1319.0293" cy="-146.6992" rx="8.1472" ry="6.3162"/>
	<ellipse fill="#FFFFFF" cx="1526.4294" cy="-150.585" rx="43.3503" ry="49.1661"/>
	<ellipse fill="#FAA81D" cx="1519.9092" cy="-147.9505" rx="36.8172" ry="43.0607"/>
	
		<ellipse stroke="#000000" stroke-width="6.9906" stroke-miterlimit="10" cx="1518.7893" cy="-147.0944" rx="25.7982" ry="32.2922"/>
	<ellipse fill="#FFFFFF" cx="1518.7893" cy="-170.8047" rx="8.1472" ry="6.3162"/>
	<polygon fill="#FAA81D" points="1509.7002,-143.2743 1543.9486,-143.2743 1561.073,-149.1361 1573.9817,-164.482 
		1572.994,-147.0943 1570.2275,-129.9043 1561.1389,-101.1225 1541.8409,-90.1894 1523.5974,-100.398 1516.089,-118.0491 	"/>
	<polygon fill="#FAA81D" points="1492.9713,-197.3471 1515.9572,-114.8218 1529.7885,-97.5001 1509.7002,-94.4046 
		1473.2786,-124.5036 1475.5181,-164.482 	"/>
	<polygon fill="#FAA81D" points="1274.6383,-121.5398 1319.0294,-121.5398 1340.566,-119.7615 1365.067,-114.8218 
		1382.9154,-110.1457 1399.5787,-104.8767 1368.6893,-67.2035 1355.1876,-67.2035 1333.7166,-67.2035 1300.3903,-80.7052 
		1284.4517,-101.386 	"/>
	<path fill="none" stroke="#FBAF30" stroke-width="6.5862" stroke-linecap="round" stroke-miterlimit="10" d="M1579.4484-177.1275
		c0,0-7.2579,26.5623-29.3152,33.8532c-9.5959,3.168-40.4326,0-40.4326,0"/>
	<path fill="none" stroke="#FBAF30" stroke-width="6.5862" stroke-linecap="round" stroke-miterlimit="10" d="M1253.9575-125.5574
		c0,0,18.4875-88.8613,110.3256-69.1883c58.2156,12.4678,33.537,87.6757,33.537,87.6757s-48.3628-12.5665-64.881-14.3712
		c-14.4897-1.5873-58.3011,0-58.3011,0"/>
	<path fill="#FFFBD0" d="M1265.2196,91.788c40.38,3.4644,161.7314,11.2823,161.7314,11.2823s56.1212,28.8543,123.1758,16.9266
		c39.9651-7.113,36.7444-43.5744,29.3152-58.0312c-1.9955-3.8792-11.8158-12.8496-11.8158-12.8496l36.0924-23.1507
		c0,0,70.3147-46.8742,78.9819-60.1782c7.91-12.1318,13.7915-41.9476,13.1592-56.4175
		c-0.4015-9.0692-5.9144-28.3734-13.1592-33.8465c-8.6938-6.5731-35.7369-7.0209-35.7369-7.0209s-61.1598,78.6526-67.5284,87.8799
		c-9.8794,14.3053-37.6007,38.727-54.3561,43.3703c-19.9033,5.5127-61.7522-8.2394-81.2083-15.168
		c-28.3801-10.1032-328.0334-107.7242-344.1433,3.7607c-5.8618,40.637,42.3494,93.0632,165.4459,103.6012L1265.2196,91.788z"/>
	<path fill="none" stroke="#FBAF30" stroke-width="6.5862" stroke-linecap="round" stroke-miterlimit="10" d="M1489.5464-221.5845
		c0,0,16.3602,81.4518,29.5524,106.4728c10.9004,20.6807,60.3428,71.4605,60.3428,71.4605l-22.7357,34.7884
		c0,0-34.8937,13.9299-47.0125,12.7641"/>
	<path fill="none" stroke="#E79A24" stroke-width="1.6466" stroke-linecap="round" stroke-miterlimit="10" d="M1567.6592,49.1092"/>
	<path fill="none" stroke="#E79A24" stroke-width="1.6466" stroke-linecap="round" stroke-miterlimit="10" d="M1560.4801,25.9258"/>
	<path fill="none" stroke="#F37448" stroke-width="6.5862" stroke-linecap="round" stroke-miterlimit="10" d="M1512.1375,60.5034"/>
	<path fill="none" stroke="#E79A24" stroke-width="1.6907" stroke-linecap="round" stroke-miterlimit="10" d="M1560.4801,25.9258"/>
	<path fill="none" stroke="#E79A24" stroke-width="1.6907" stroke-linecap="round" stroke-miterlimit="10" d="M1410.051,61.6889"/>
	<path fill="#FFD08C" d="M1460.5671,63.9282c0,0,62.7074,15.9452,79.7262,17.1702c22.538,1.6202,40.5511-13.9101,42.0594-30.0134
		c1.1791-12.5994,1.1791-12.5994-0.1053-11.315c-36.8171,36.8169-121.6472,24.1715-121.6472,24.1715L1460.5671,63.9282z"/>
	
		<line fill="none" stroke="#FBAF30" stroke-width="3.2931" stroke-linecap="round" stroke-miterlimit="10" x1="1560.4801" y1="24.1474" x2="1560.4801" y2="39.2299"/>
	<path fill="#8A5121" d="M1546.1881-60.0903c-16.8214,3.9188-45.8403,36.9421-48.0597,49.6337
		c-5.1571,29.5327,62.3452,36.3955,62.3452,36.3955s37.39-22.2153,43.2518-34.7884c3.7542-8.0682-0.6058-29.2033-7.5281-34.7884
		c-8.9572-7.3107-37.2123-19.4953-50.0552-16.5314L1546.1881-60.0903z"/>
</g>
</svg>
