<?xml version="1.0"?>
<svg xmlns:rdf="http://www.w3.org/1999/02/22-rdf-syntax-ns#" xmlns="http://www.w3.org/2000/svg" xmlns:cc="http://web.resource.org/cc/" xmlns:dc="http://purl.org/dc/elements/1.1/" xmlns:svg="http://www.w3.org/2000/svg" id="svg9840" viewBox="0 0 639.13 441.59" version="1.0">
  <g id="layer1" transform="translate(-38.254 -179.35)">
    <g id="g9835" stroke="#000" fill="#fff" transform="matrix(5.5071 0 0 5.5071 -1052 -2439.7)" fill-rule="evenodd">
      <path id="path575" stroke-linejoin="round" stroke-width="2.38" fill-opacity=".99167" d="m219.81 506.7c0.17-0.77-1.18 10.41-0.92 7.99 1.71-9.5 0.99-19.79 4.82-28.83 0.95-1.99 2.17-3.26 3.73-3.17 22.19 0.69 45.07-22.3 61.71 28.81 51.31 24.02 3.57 43.31-37.05 41.6-40.14-1.68-74.42-30.62-32.29-46.4z"/>
      <path id="path576" stroke-width="1.19" d="m218.77 513.56c25.65 16.12 67.95 6.18 69.69-1.71 2.42 2.74 0 10.29 0 10.29-11.1 14.41-64.84 11.32-70.73 1.03-0.69-2.75 0.69-8.58 1.04-9.61z"/>
      <path id="path590" stroke-width=".44704pt" fill-opacity=".31667" d="m223.82 516.53c4.16 2.06 16.1 5.16 20.95 5.5 3.47 2.41 1.74 6.63 0.35 9.37-9.36 0-20.11-2.4-22.88-5.49-1.74-3.09-0.15-6.29 1.58-9.38z"/>
    </g>
  </g>
  <metadata>
    <rdf:RDF>
      <cc:Work>
        <dc:format>image/svg+xml</dc:format>
        <dc:type rdf:resource="http://purl.org/dc/dcmitype/StillImage"/>
        <cc:license rdf:resource="http://creativecommons.org/licenses/publicdomain/"/>
        <dc:publisher>
          <cc:Agent rdf:about="http://openclipart.org/">
            <dc:title>Openclipart</dc:title>
          </cc:Agent>
        </dc:publisher>
        <dc:title>Hat Outline</dc:title>
        <dc:date>2008-01-03T09:13:58</dc:date>
        <dc:description>Hat outline remixed from Red Fedora by Nicubunu (http://www.openclipart.org/detail/14848)</dc:description>
        <dc:source>http://openclipart.org/detail/10458/hat-outline-by-rygle-10458</dc:source>
        <dc:creator>
          <cc:Agent>
            <dc:title>rygle</dc:title>
          </cc:Agent>
        </dc:creator>
        <dc:subject>
          <rdf:Bag>
            <rdf:li>clip art</rdf:li>
            <rdf:li>clipart</rdf:li>
            <rdf:li>clothing</rdf:li>
            <rdf:li>colouring book</rdf:li>
            <rdf:li>fedora</rdf:li>
            <rdf:li>hat</rdf:li>
            <rdf:li>image</rdf:li>
            <rdf:li>line art</rdf:li>
            <rdf:li>media</rdf:li>
            <rdf:li>people</rdf:li>
            <rdf:li>png</rdf:li>
            <rdf:li>public domain</rdf:li>
            <rdf:li>remix</rdf:li>
            <rdf:li>svg</rdf:li>
          </rdf:Bag>
        </dc:subject>
      </cc:Work>
      <cc:License rdf:about="http://creativecommons.org/licenses/publicdomain/">
        <cc:permits rdf:resource="http://creativecommons.org/ns#Reproduction"/>
        <cc:permits rdf:resource="http://creativecommons.org/ns#Distribution"/>
        <cc:permits rdf:resource="http://creativecommons.org/ns#DerivativeWorks"/>
      </cc:License>
    </rdf:RDF>
  </metadata>
</svg>
